<svg xmlns="http://www.w3.org/2000/svg" xmlns:xlink="http://www.w3.org/1999/xlink" width="200px" height="px" viewBox="0 0 198 43" version="1.1">
<g id="surface1">
<path style=" stroke:none;fill-rule:nonzero;fill:rgb(95.294118%,34.117648%,34.117648%);fill-opacity:1;" d="M 19.9375 24.421875 L 22.285156 28.496094 L 16.425781 38.6875 L 46.9375 38.6875 L 49.269531 42.738281 L 9.347656 42.738281 Z M 19.9375 24.421875 " data-index="0"></path>
<path style=" stroke:none;fill-rule:nonzero;fill:rgb(28.627452%,77.254903%,69.411767%);fill-opacity:1;" d="M 19.957031 8.113281 L 30.5 26.460938 L 25.804688 26.460938 L 19.941406 16.289062 L 4.652344 42.738281 L 0 42.738281 Z M 19.957031 8.113281 " data-index="1"></path>
<path style=" stroke:none;fill-rule:nonzero;fill:rgb(0%,68.627453%,84.313726%);fill-opacity:1;" d="M 44.589844 34.617188 L 23.453125 34.617188 L 25.804688 30.53125 L 37.527344 30.53125 L 22.304688 4.039062 L 24.632812 0 Z M 44.589844 34.617188 " data-index="2"></path>
<path style="fill-rule: nonzero; fill: rgb(255, 255, 255); fill-opacity: 1; opacity: 1; visibility: visible;" d="M 82.039062 31.441406 L 72.097656 19.15625 L 81.332031 9.980469 C 81.730469 9.582031 81.925781 9.152344 81.925781 8.675781 C 81.925781 7.703125 81.09375 6.855469 80.144531 6.855469 C 79.523438 6.855469 79.101562 7.148438 78.722656 7.488281 L 64.09375 22.511719 L 64.09375 8.710938 C 64.09375 7.6875 63.261719 6.851562 62.238281 6.851562 C 61.253906 6.851562 60.417969 7.703125 60.417969 8.710938 L 60.417969 32.757812 C 60.417969 33.765625 61.25 34.617188 62.238281 34.617188 C 63.261719 34.617188 64.09375 33.78125 64.09375 32.757812 L 64.09375 27.09375 L 69.488281 21.691406 L 79.1875 33.789062 C 79.570312 34.339844 80.070312 34.617188 80.675781 34.617188 C 81.683594 34.617188 82.535156 33.765625 82.535156 32.757812 C 82.535156 32.15625 82.296875 31.773438 82.039062 31.441406 Z M 103.070312 23.941406 C 103.070312 18.804688 99.816406 13.609375 93.59375 13.609375 C 88.105469 13.609375 83.808594 18.261719 83.808594 24.207031 L 83.808594 24.285156 C 83.808594 30.328125 88.179688 34.886719 93.972656 34.886719 C 97.0625 34.886719 99.425781 33.9375 101.625 31.824219 C 101.992188 31.503906 102.195312 31.074219 102.195312 30.621094 C 102.195312 29.742188 101.464844 29.027344 100.566406 29.027344 C 100.078125 29.027344 99.730469 29.265625 99.5 29.460938 C 97.871094 30.960938 96.140625 31.660156 94.050781 31.660156 C 90.589844 31.660156 87.992188 29.261719 87.488281 25.648438 L 101.367188 25.648438 C 102.308594 25.648438 103.070312 24.882812 103.070312 23.941406 Z M 93.515625 16.753906 C 97.351562 16.753906 99.074219 19.816406 99.433594 22.804688 L 87.488281 22.804688 C 87.984375 19.222656 90.421875 16.757812 93.515625 16.757812 Z M 124.671875 23.941406 C 124.671875 18.804688 121.417969 13.609375 115.195312 13.609375 C 109.710938 13.609375 105.414062 18.261719 105.414062 24.207031 L 105.414062 24.285156 C 105.414062 30.328125 109.78125 34.886719 115.574219 34.886719 C 118.664062 34.886719 121.027344 33.9375 123.226562 31.824219 C 123.59375 31.503906 123.796875 31.074219 123.796875 30.621094 C 123.796875 29.742188 123.0625 29.027344 122.164062 29.027344 C 121.675781 29.027344 121.332031 29.265625 121.101562 29.460938 C 119.472656 30.960938 117.742188 31.660156 115.652344 31.660156 C 112.191406 31.660156 109.597656 29.261719 109.09375 25.648438 L 122.96875 25.648438 C 123.910156 25.648438 124.671875 24.882812 124.671875 23.941406 Z M 115.117188 16.753906 C 118.953125 16.753906 120.671875 19.816406 121.035156 22.804688 L 109.09375 22.804688 C 109.585938 19.222656 112.023438 16.757812 115.117188 16.757812 Z M 138.246094 13.609375 C 135.566406 13.609375 133.414062 14.652344 131.832031 16.714844 L 131.832031 15.660156 C 131.832031 14.636719 131.035156 13.835938 130.015625 13.835938 C 129.035156 13.835938 128.234375 14.652344 128.234375 15.660156 L 128.234375 32.796875 C 128.234375 33.816406 129.035156 34.617188 130.054688 34.617188 C 131.066406 34.617188 131.832031 33.832031 131.832031 32.796875 L 131.832031 22.796875 C 131.832031 19.351562 134.125 16.949219 137.40625 16.949219 C 140.609375 16.949219 142.519531 19.046875 142.519531 22.566406 L 142.519531 32.796875 C 142.519531 33.816406 143.320312 34.617188 144.339844 34.617188 C 145.339844 34.617188 146.125 33.816406 146.125 32.796875 L 146.125 21.84375 C 146.125 16.839844 143.03125 13.609375 138.246094 13.609375 Z M 163.808594 6.855469 C 162.820312 6.855469 161.988281 7.703125 161.988281 8.710938 L 161.988281 32.757812 C 161.988281 33.765625 162.820312 34.617188 163.808594 34.617188 C 164.832031 34.617188 165.664062 33.785156 165.664062 32.757812 L 165.664062 8.710938 C 165.664062 7.6875 164.832031 6.851562 163.808594 6.851562 Z M 184.101562 6.585938 C 176.265625 6.585938 170.128906 12.800781 170.128906 20.734375 L 170.128906 20.8125 C 170.128906 28.835938 176.105469 34.886719 184.027344 34.886719 C 191.863281 34.886719 198 28.671875 198 20.734375 L 198 20.660156 C 198 12.636719 192.023438 6.585938 184.101562 6.585938 Z M 194.210938 20.734375 L 194.210938 20.8125 C 194.210938 26.867188 189.863281 31.433594 184.101562 31.433594 C 178.296875 31.433594 173.921875 26.832031 173.921875 20.734375 L 173.921875 20.660156 C 173.921875 14.605469 178.265625 10.039062 184.027344 10.039062 C 189.734375 10.039062 194.210938 14.738281 194.210938 20.734375 Z M 194.210938 20.734375 " data-index="3"></path>
</g>
</svg>