<svg xmlns="http://www.w3.org/2000/svg" xmlns:xlink="http://www.w3.org/1999/xlink" width="200px" height="98px" viewBox="0 0 200 98" version="1.1">
<defs>
<linearGradient id="linear0" gradientUnits="userSpaceOnUse" x1="47.901001" y1="2.557" x2="47.901001" y2="101.557999" gradientTransform="matrix(0.744095,0,0,0.745922,0.203411,0)">
<stop offset="0.06" style="stop-color:rgb(89.019608%,51.372549%,55.294118%);stop-opacity:1;"></stop>
<stop offset="0.385" style="stop-color:rgb(80.784314%,23.921569%,38.039216%);stop-opacity:1;"></stop>
<stop offset="0.632" style="stop-color:rgb(70.980392%,3.921569%,24.313725%);stop-opacity:1;"></stop>
</linearGradient>
<filter id="alpha" filterUnits="objectBoundingBox" x="0%" y="0%" width="100%" height="100%">
  <feColorMatrix type="matrix" in="SourceGraphic" values="0 0 0 0 1 0 0 0 0 1 0 0 0 0 1 0 0 0 1 0"></feColorMatrix>
</filter>
<mask id="mask0">
  <g filter="url(#alpha)">
<rect x="0" y="0" width="200" height="98" style="fill:rgb(0%,0%,0%);fill-opacity:0.8;stroke:none;"></rect>
  </g>
</mask>
<clipPath id="clip1">
  <rect x="0" y="0" width="200" height="98"></rect>
</clipPath>
<g id="surface5" clip-path="url(#clip1)">
<path style=" stroke:none;fill-rule:nonzero;fill:rgb(30.19608%,30.19608%,30.19608%);fill-opacity:1;" d="M 50.597656 39.3125 L 50.597656 43.042969 L 71.808594 43.042969 C 71.347656 50.800781 68.023438 57.777344 62.871094 62.941406 C 57.3125 68.515625 49.644531 71.953125 41.164062 71.953125 C 32.679688 71.953125 25.015625 68.515625 19.453125 62.941406 C 13.894531 57.363281 10.464844 49.683594 10.464844 41.179688 C 10.464844 32.675781 13.898438 24.992188 19.453125 19.417969 C 25.015625 13.84375 32.679688 10.402344 41.164062 10.402344 L 42.847656 10.402344 L 42.847656 6.671875 L 41.164062 6.671875 C 22.152344 6.675781 6.742188 22.121094 6.742188 41.179688 C 6.742188 60.238281 22.152344 75.683594 41.164062 75.6875 C 60.175781 75.683594 75.585938 60.238281 75.585938 41.179688 L 75.585938 39.316406 L 50.597656 39.316406 Z M 23.054688 28.28125 C 23.054688 31.097656 25.332031 33.378906 28.140625 33.378906 C 30.945312 33.378906 33.222656 31.097656 33.222656 28.28125 C 33.222656 25.46875 30.945312 23.1875 28.140625 23.1875 C 25.332031 23.1875 23.054688 25.46875 23.054688 28.28125 Z M 39.144531 23.316406 L 39.144531 59.265625 L 50.691406 59.265625 L 50.691406 55.535156 L 42.863281 55.535156 L 42.867188 23.316406 Z M 39.144531 23.316406 " data-index="0"></path>
</g>
<linearGradient id="linear1" gradientUnits="userSpaceOnUse" x1="54.219002" y1="8.386" x2="54.219002" y2="100.903999" gradientTransform="matrix(0.744095,0,0,0.745922,0.203411,0)">
<stop offset="0.082" style="stop-color:rgb(100%,100%,100%);stop-opacity:1;"></stop>
<stop offset="0.35" style="stop-color:rgb(98.823529%,98.823529%,98.823529%);stop-opacity:1;"></stop>
<stop offset="0.527" style="stop-color:rgb(95.294118%,95.294118%,95.294118%);stop-opacity:1;"></stop>
<stop offset="0.679" style="stop-color:rgb(89.411765%,89.411765%,89.411765%);stop-opacity:1;"></stop>
<stop offset="0.815" style="stop-color:rgb(81.176471%,81.176471%,81.176471%);stop-opacity:1;"></stop>
<stop offset="0.941" style="stop-color:rgb(70.588235%,70.588235%,70.588235%);stop-opacity:1;"></stop>
<stop offset="0.945" style="stop-color:rgb(70.196078%,70.196078%,70.196078%);stop-opacity:1;"></stop>
</linearGradient>
</defs>
<g id="surface1">
<path style=" stroke:none;fill-rule:nonzero;fill:rgb(70.980394%,3.921569%,24.313726%);fill-opacity:1;" d="M 81.367188 40.683594 C 81.367188 18.214844 63.199219 0 40.785156 0 C 18.371094 0 0.203125 18.214844 0.203125 40.683594 C 0.203125 63.148438 18.371094 81.363281 40.785156 81.363281 C 63.199219 81.363281 81.367188 63.148438 81.367188 40.683594 Z M 81.367188 40.683594 " data-index="1"></path>
<path style=" stroke:none;fill-rule:nonzero;fill:url(#linear0);" d="M 69.640625 38.832031 C 69.640625 59.222656 53.355469 75.753906 35.101562 75.753906 C 16.847656 75.753906 2.050781 59.222656 2.050781 38.832031 C 2.050781 18.4375 20.632812 1.90625 38.882812 1.90625 C 57.136719 1.90625 69.640625 18.4375 69.640625 38.832031 Z M 69.640625 38.832031 " data-index="2"></path>
<use xlink:href="#surface5" mask="url(#mask0)"></use>
<path style=" stroke:none;fill-rule:nonzero;fill:url(#linear1);" d="M 49.984375 38.894531 L 49.984375 42.625 L 71.191406 42.625 C 70.730469 50.382812 67.40625 57.355469 62.253906 62.523438 C 56.695312 68.097656 49.03125 71.535156 40.546875 71.535156 C 32.0625 71.535156 24.398438 68.097656 18.835938 62.523438 C 13.28125 56.945312 9.847656 49.265625 9.847656 40.761719 C 9.847656 32.257812 13.28125 24.574219 18.835938 19 C 24.398438 13.425781 32.0625 9.984375 40.546875 9.984375 L 42.230469 9.984375 L 42.230469 6.253906 L 40.546875 6.253906 C 21.535156 6.257812 6.128906 21.703125 6.125 40.761719 C 6.128906 59.820312 21.535156 75.265625 40.546875 75.265625 C 59.558594 75.265625 74.96875 59.820312 74.96875 40.761719 L 74.96875 38.894531 Z M 22.441406 27.863281 C 22.441406 30.679688 24.714844 32.960938 27.523438 32.960938 C 30.332031 32.960938 32.605469 30.679688 32.605469 27.863281 C 32.605469 25.050781 30.332031 22.769531 27.523438 22.769531 C 24.714844 22.769531 22.441406 25.050781 22.441406 27.863281 Z M 38.527344 22.898438 L 38.527344 58.847656 L 50.078125 58.847656 L 50.078125 55.117188 L 42.246094 55.117188 L 42.25 22.898438 Z M 38.527344 22.898438 " data-index="3"></path>
<path style="fill-rule: nonzero; fill: rgb(255, 255, 255); fill-opacity: 1; opacity: 1; visibility: visible;" d="M 184.09375 62.699219 C 177.855469 66.175781 171.007812 67.492188 163.953125 67.492188 C 145.445312 67.492188 138.046875 56.992188 138.046875 40.554688 C 138.046875 24.117188 146.003906 13.429688 163.953125 13.429688 C 171.546875 13.429688 178.523438 15.199219 184.191406 21.996094 L 176.574219 28.984375 C 173.691406 25.070312 169.308594 23.207031 163.953125 23.207031 C 153.34375 23.207031 149.71875 30.996094 149.71875 40.554688 C 149.71875 50.113281 152.320312 57.390625 163.953125 57.390625 C 168.566406 57.390625 171.167969 56.875 173.136719 55.714844 L 173.136719 46.550781 L 163.378906 46.550781 L 163.378906 37.085938 L 184.09375 37.085938 Z M 99.34375 14.589844 L 99.34375 66.800781 L 136.300781 66.800781 L 136.300781 56.359375 L 111.496094 56.359375 L 111.496094 14.613281 Z M 99.570312 97.675781 L 99.570312 82.007812 L 101.980469 82.007812 L 101.980469 95.539062 L 108.519531 95.539062 L 108.519531 97.675781 Z M 110.273438 84.625 L 110.273438 82.246094 L 112.6875 82.246094 L 112.6875 84.625 Z M 110.34375 97.675781 L 110.34375 86.519531 L 112.621094 86.519531 L 112.621094 97.675781 Z M 118.207031 88.433594 L 118.207031 97.675781 L 115.929688 97.675781 L 115.929688 88.433594 L 114.632812 88.433594 L 114.632812 86.71875 L 115.929688 86.71875 L 115.929688 85 C 115.929688 83.394531 116.910156 81.898438 119.035156 81.898438 L 121.695312 81.898438 L 121.695312 83.8125 L 119.457031 83.8125 C 118.609375 83.8125 118.207031 84.296875 118.207031 85.109375 L 118.207031 86.714844 L 121.789062 86.714844 L 121.789062 88.433594 Z M 125.285156 92.746094 C 125.285156 94.660156 126.3125 95.871094 128.167969 95.871094 C 129.441406 95.871094 130.113281 95.515625 130.917969 94.726562 L 132.367188 96.066406 C 131.207031 97.210938 130.113281 97.804688 128.125 97.804688 C 125.285156 97.804688 123.027344 96.332031 123.027344 92.085938 C 123.027344 88.476562 124.929688 86.386719 127.832031 86.386719 C 130.871094 86.386719 132.636719 88.585938 132.636719 91.753906 L 132.636719 92.746094 Z M 130.066406 89.664062 C 129.710938 88.828125 128.90625 88.257812 127.832031 88.257812 C 126.761719 88.257812 125.933594 88.828125 125.574219 89.664062 C 125.351562 90.171875 125.308594 90.503906 125.285156 91.183594 L 130.378906 91.183594 C 130.359375 90.503906 130.289062 90.171875 130.066406 89.664062 Z M 140.84375 97.804688 C 138.988281 97.804688 137.421875 97.496094 136.082031 96.199219 L 137.582031 94.726562 C 138.496094 95.648438 139.726562 95.890625 140.84375 95.890625 C 142.226562 95.890625 143.324219 95.40625 143.324219 94.351562 C 143.324219 93.605469 142.898438 93.121094 141.804688 93.03125 L 139.992188 92.878906 C 137.871094 92.703125 136.640625 91.753906 136.640625 89.796875 C 136.640625 87.617188 138.542969 86.386719 140.910156 86.386719 C 142.609375 86.386719 144.058594 86.738281 145.109375 87.640625 L 143.679688 89.070312 C 142.964844 88.476562 141.960938 88.257812 140.886719 88.257812 C 139.523438 88.257812 138.832031 88.851562 138.832031 89.6875 C 138.832031 90.347656 139.1875 90.851562 140.394531 90.964844 L 142.183594 91.117188 C 144.304688 91.292969 145.558594 92.285156 145.558594 94.265625 C 145.558594 96.597656 143.546875 97.804688 140.84375 97.804688 Z M 163.183594 84.921875 C 160.921875 83.761719 158.496094 84.011719 158.496094 84.011719 C 157.429688 84.09375 156.710938 84.382812 156.152344 84.980469 C 155.367188 85.816406 155.191406 86.695312 155.191406 89.84375 C 155.191406 92.988281 155.367188 93.890625 156.152344 94.726562 C 156.710938 95.320312 157.558594 95.671875 158.496094 95.671875 C 158.496094 95.671875 160.53125 95.824219 161.894531 95.308594 L 161.894531 91.226562 L 158.496094 91.226562 L 158.496094 89.203125 L 164.308594 89.203125 L 164.308594 91.601562 L 164.269531 97.210938 C 161.273438 98 158.59375 97.8125 158.496094 97.808594 C 156.90625 97.726562 155.414062 97.214844 154.320312 96.136719 C 152.753906 94.59375 152.777344 92.855469 152.777344 89.84375 C 152.777344 86.828125 152.753906 85.089844 154.320312 83.550781 C 155.414062 82.472656 156.800781 81.878906 158.496094 81.878906 C 158.496094 81.878906 161.824219 81.589844 164.523438 83.265625 Z M 175.402344 96.484375 C 174.664062 97.234375 173.546875 97.804688 172.003906 97.804688 C 170.460938 97.804688 169.367188 97.234375 168.632812 96.484375 C 167.558594 95.386719 167.289062 93.976562 167.289062 92.085938 C 167.289062 90.214844 167.558594 88.808594 168.632812 87.707031 C 169.367188 86.960938 170.460938 86.386719 172.003906 86.386719 C 173.546875 86.386719 174.664062 86.960938 175.402344 87.707031 C 176.472656 88.808594 176.742188 90.214844 176.742188 92.085938 C 176.742188 93.976562 176.472656 95.386719 175.402344 96.484375 Z M 173.679688 89.027344 C 173.257812 88.609375 172.675781 88.390625 172.003906 88.390625 C 171.335938 88.390625 170.777344 88.609375 170.351562 89.027344 C 169.65625 89.710938 169.570312 90.875 169.570312 92.085938 C 169.570312 93.296875 169.65625 94.460938 170.351562 95.144531 C 170.773438 95.5625 171.335938 95.804688 172.003906 95.804688 C 172.675781 95.804688 173.257812 95.5625 173.679688 95.144531 C 174.375 94.460938 174.460938 93.296875 174.460938 92.085938 C 174.460938 90.875 174.375 89.710938 173.679688 89.027344 Z M 187.035156 96.484375 C 186.296875 97.234375 185.179688 97.804688 183.640625 97.804688 C 182.097656 97.804688 181.003906 97.234375 180.265625 96.484375 C 179.191406 95.386719 178.925781 93.976562 178.925781 92.085938 C 178.925781 90.214844 179.191406 88.808594 180.265625 87.707031 C 181.003906 86.960938 182.097656 86.386719 183.640625 86.386719 C 185.179688 86.386719 186.296875 86.960938 187.035156 87.707031 C 188.109375 88.808594 188.375 90.214844 188.375 92.085938 C 188.375 93.976562 188.109375 95.386719 187.035156 96.484375 Z M 185.3125 89.027344 C 184.890625 88.609375 184.308594 88.390625 183.636719 88.390625 C 182.96875 88.390625 182.410156 88.609375 181.984375 89.027344 C 181.292969 89.710938 181.203125 90.875 181.203125 92.085938 C 181.203125 93.296875 181.292969 94.460938 181.984375 95.144531 C 182.410156 95.5625 182.96875 95.804688 183.636719 95.804688 C 184.308594 95.804688 184.890625 95.5625 185.3125 95.144531 C 186.007812 94.460938 186.097656 93.296875 186.097656 92.085938 C 186.097656 90.875 186.007812 89.710938 185.3125 89.027344 Z M 197.5625 97.675781 L 197.5625 96.484375 C 196.714844 97.496094 195.796875 97.804688 194.570312 97.804688 C 193.429688 97.804688 192.425781 97.433594 191.796875 96.816406 C 190.660156 95.695312 190.523438 93.78125 190.523438 92.085938 C 190.523438 90.390625 190.660156 88.5 191.796875 87.378906 C 192.425781 86.761719 193.40625 86.386719 194.546875 86.386719 C 195.753906 86.386719 196.691406 86.671875 197.515625 87.640625 L 197.515625 82.007812 L 199.796875 82.007812 L 199.796875 97.675781 Z M 195.171875 88.390625 C 193.117188 88.390625 192.804688 90.105469 192.804688 92.085938 C 192.804688 94.066406 193.117188 95.804688 195.171875 95.804688 C 197.226562 95.804688 197.515625 94.066406 197.515625 92.085938 C 197.519531 90.105469 197.226562 88.390625 195.171875 88.390625 Z M 135.773438 83.824219 L 135.773438 81.835938 L 133.652344 81.835938 L 133.652344 83.824219 C 133.652344 83.824219 133.726562 85.371094 133.066406 86.476562 L 134.296875 87.625 C 135.820312 86.574219 135.773438 83.824219 135.773438 83.824219 Z M 135.773438 83.824219 " data-index="4"></path>
</g>
</svg>