<svg xmlns="http://www.w3.org/2000/svg" xmlns:xlink="http://www.w3.org/1999/xlink" width="200px" height="126px" viewBox="0 0 220 126" version="1.1">
<g id="surface1">
<path style="fill-rule: nonzero; fill: rgb(255, 255, 255); fill-opacity: 1; opacity: 1; visibility: visible;" d="M 28.050781 62.355469 L 31.882812 62.355469 L 31.882812 69.695312 L 18.246094 69.695312 L 18.246094 62.355469 L 22.0625 62.355469 L 22.0625 58.054688 L 9.941406 58.054688 L 9.941406 62.355469 L 13.800781 62.355469 L 13.800781 83.972656 L 9.941406 83.972656 L 9.941406 88.253906 L 22.0625 88.253906 L 22.0625 83.972656 L 18.246094 83.972656 L 18.246094 73.941406 L 31.878906 73.941406 L 31.878906 83.972656 L 28.050781 83.972656 L 28.050781 88.253906 L 40.199219 88.253906 L 40.199219 83.972656 L 36.332031 83.972656 L 36.332031 62.355469 L 40.203125 62.355469 L 40.203125 58.054688 L 28.054688 58.054688 M 174.273438 83.972656 L 162.324219 83.972656 L 162.324219 73.898438 L 172.601562 73.898438 L 172.601562 69.636719 L 162.320312 69.636719 L 162.320312 62.355469 L 174.363281 62.355469 L 174.363281 66.488281 L 178.597656 66.488281 L 178.597656 58.054688 L 153.828125 58.054688 L 153.828125 62.355469 L 157.871094 62.355469 L 157.871094 83.972656 L 153.828125 83.972656 L 153.828125 88.253906 L 178.652344 88.253906 L 178.652344 78.191406 L 174.273438 78.191406 M 70.695312 78.191406 L 66.316406 78.191406 L 66.316406 83.972656 L 54.371094 83.972656 L 54.371094 73.898438 L 64.648438 73.898438 L 64.648438 69.636719 L 54.371094 69.636719 L 54.371094 62.355469 L 66.414062 62.355469 L 66.414062 66.488281 L 70.648438 66.488281 L 70.648438 58.054688 L 45.882812 58.054688 L 45.882812 62.355469 L 49.921875 62.355469 L 49.921875 83.972656 L 45.878906 83.972656 L 45.878906 88.253906 L 70.695312 88.253906 M 163.476562 56.5625 L 172.160156 56.5625 L 169.9375 53.910156 L 161.035156 53.910156 M 202.808594 70.984375 C 199.777344 70.121094 197.636719 70.316406 194.554688 69.285156 C 191.769531 68.351562 191.21875 66.636719 191.21875 65.5 C 191.21875 64.359375 192.449219 61.398438 196.820312 61.398438 C 201.199219 61.398438 204.066406 64.296875 204.230469 66.851562 L 204.246094 66.839844 L 204.246094 66.851562 L 208.449219 66.851562 L 208.449219 58.046875 L 204.382812 58.046875 L 204.382812 59.964844 L 204.511719 60.5625 C 204.480469 60.476562 204.363281 60.234375 203.9375 59.808594 C 203.929688 59.796875 203.929688 59.792969 203.929688 59.785156 C 202.640625 58.621094 200.179688 57.355469 196.484375 57.355469 C 192.003906 57.355469 186.722656 60.136719 186.722656 65.519531 C 186.722656 70.765625 190.507812 72.59375 193.714844 73.445312 C 196.925781 74.296875 198.566406 74.296875 201.246094 75.023438 C 203.917969 75.75 205.652344 77.367188 205.652344 79.761719 C 205.652344 82.027344 204.261719 85 198.601562 85 C 192.929688 85 190.691406 81.9375 190.035156 77.554688 L 189.988281 77.574219 L 185.988281 77.574219 L 185.988281 88.261719 L 190.167969 88.261719 L 190.167969 86.261719 L 190.15625 86.25 L 190.007812 85.71875 C 190.007812 85.71875 190.15625 86.078125 190.632812 86.410156 L 190.675781 86.46875 C 192.792969 88.09375 195.570312 89.175781 199.128906 89.175781 C 203.101562 89.175781 210.058594 87.132812 210.058594 79.898438 C 210.046875 74.71875 207.300781 72.277344 202.808594 70.984375 Z M 135.886719 83.972656 L 135.886719 88.253906 L 148.183594 88.253906 L 148.183594 83.972656 L 144.152344 83.972656 L 144.152344 62.355469 L 148.183594 62.355469 L 148.183594 58.054688 L 137.191406 58.054688 L 129.914062 75.703125 L 129.761719 76.570312 L 129.617188 75.691406 L 122.339844 58.050781 L 111.359375 58.050781 L 111.359375 62.351562 L 115.382812 62.351562 L 115.382812 83.972656 L 111.355469 83.972656 L 111.355469 88.25 L 123.640625 88.25 L 123.640625 83.972656 L 119.800781 83.972656 L 119.800781 64.09375 L 119.828125 62.78125 L 120.183594 63.824219 L 128.566406 83.917969 L 130.949219 83.917969 L 139.359375 63.820312 L 139.667969 62.761719 L 139.714844 63.953125 L 139.714844 83.972656 M 51.898438 45.339844 L 51.898438 46.328125 L 56.046875 46.328125 C 55.636719 46.019531 55.242188 45.6875 54.863281 45.339844 Z M 163.59375 45.355469 L 161.4375 45.355469 C 160.835938 45.472656 160.394531 45.980469 160.34375 46.328125 L 163.589844 46.328125 L 163.589844 45.355469 Z M 51.898438 49.210938 L 163.578125 49.210938 L 163.578125 47.117188 L 91.75 47.117188 C 89.914062 47.996094 87.585938 47.953125 85.769531 47.117188 L 63.964844 47.117188 C 61.902344 48.023438 59.53125 48.019531 57.46875 47.125 L 51.898438 47.113281 Z M 83.347656 45.339844 L 66.480469 45.339844 C 66.421875 45.457031 65.652344 46.125 65.335938 46.328125 L 84.417969 46.328125 C 84.023438 46.042969 83.664062 45.710938 83.347656 45.339844 Z M 83.347656 45.339844 " data-index="0"></path>
<path style="fill-rule: nonzero; fill: rgb(255, 255, 255); fill-opacity: 1; opacity: 1; visibility: visible;" d="M 53.8125 37.574219 C 53.605469 38.238281 53.496094 38.925781 53.484375 39.617188 C 53.59375 43.527344 56.789062 46.636719 60.691406 46.636719 C 64.59375 46.640625 67.785156 43.53125 67.898438 39.621094 C 67.898438 38.765625 67.722656 37.957031 67.453125 37.195312 C 68.28125 37.050781 69.09375 36.875 69.894531 36.652344 C 70.269531 36.550781 70.257812 36.378906 69.960938 36.289062 C 68.894531 35.960938 67.757812 35.707031 66.597656 35.492188 C 65.253906 33.554688 63.046875 32.402344 60.695312 32.402344 C 59.765625 32.402344 58.890625 32.589844 58.085938 32.910156 C 58.074219 32.902344 58.0625 32.886719 58.054688 32.878906 C 57.722656 32.277344 57.691406 31.554688 57.96875 30.925781 C 58.703125 29.730469 60.328125 29.261719 61.667969 29.148438 C 62.117188 29.125 63.195312 29.179688 63.3125 29.304688 C 63.570312 29.515625 64.019531 29.589844 64.5 29.421875 C 64.957031 29.597656 65.074219 29.734375 65.597656 29.894531 C 70.1875 31.464844 75.277344 32.292969 80.414062 31.347656 C 81.21875 32.109375 81.660156 33.445312 82.222656 34.371094 C 82.375 34.601562 82.558594 34.195312 85.089844 34.109375 C 85.984375 34.074219 87.078125 34.082031 88.03125 34.101562 C 86.0625 34.332031 84.363281 35.441406 83.359375 37.042969 C 81.773438 37.550781 80.554688 38.03125 80.09375 38.3125 C 79.53125 38.652344 79.429688 38.839844 80.09375 39.015625 C 80.902344 39.226562 81.683594 39.363281 82.464844 39.457031 C 82.414062 39.777344 82.367188 40.105469 82.367188 40.441406 C 82.367188 43.980469 85.230469 46.847656 88.761719 46.847656 C 92.292969 46.847656 95.15625 43.980469 95.15625 40.441406 C 95.15625 39.335938 94.851562 38.3125 94.363281 37.40625 C 95.167969 37.113281 96.015625 36.792969 96.914062 36.445312 C 97.613281 36.699219 98.085938 37.113281 98.582031 37.695312 C 98.988281 38.152344 99.90625 37.972656 100.453125 37.839844 C 101.335938 37.609375 101.472656 36.902344 101.46875 36.097656 C 101.46875 35.730469 101.484375 35.371094 101.660156 35.078125 C 102.695312 32.71875 106.832031 32.40625 108.957031 31.882812 C 108.957031 31.882812 107.84375 33.21875 107.058594 33.515625 C 106.898438 36.964844 105.582031 39.96875 105.421875 43.257812 C 106.421875 43.296875 106.378906 44.417969 106.617188 45.058594 C 106.339844 45.664062 105.859375 45.058594 105.421875 45.261719 C 103.902344 44.417969 105.78125 43.058594 104.539062 42.015625 C 105.175781 39.253906 106.222656 36.566406 106.132812 33.640625 C 105.738281 33.683594 105.582031 34.125 105.417969 34.445312 C 105.136719 37.210938 104.339844 39.738281 103.621094 42.300781 C 103.9375 42.460938 104.5 42.621094 104.460938 43.101562 C 103.5 43.703125 104.5 44.671875 104.097656 45.355469 L 94.222656 45.355469 L 93.128906 46.34375 L 108.273438 46.34375 L 108.417969 45.789062 C 106.183594 43.460938 107.023438 39.976562 108.058594 37.332031 L 110.660156 33.804688 C 112.820312 32.960938 114.136719 30.316406 116.417969 29.476562 C 116.417969 30.597656 115.015625 31.082031 114.257812 31.722656 C 113.460938 33.605469 110.941406 33.804688 110.578125 35.890625 C 111.535156 37.011719 112.972656 37.734375 114.175781 38.777344 C 115.417969 39.539062 114.96875 41.140625 115.972656 41.941406 C 116.136719 42.183594 115.972656 42.542969 115.691406 42.746094 C 114.636719 42.996094 114.667969 43.710938 115.304688 44.300781 C 115.710938 44.679688 116.175781 45.175781 116.121094 45.359375 L 109.132812 45.359375 C 109.132812 45.679688 109.417969 45.800781 109.722656 46.347656 L 148.324219 46.347656 C 148.613281 45.800781 147.984375 45.15625 147.714844 44.621094 C 144.988281 43.585938 145.003906 41.003906 144.84375 38.15625 C 144.871094 38.039062 144.6875 37.769531 144.714844 37.183594 C 144.308594 36.800781 142.515625 32.230469 143.332031 28.652344 L 143.925781 27.476562 C 144.488281 26.671875 143.890625 26.242188 144.289062 25.402344 L 152.421875 23.824219 C 152.570312 23.75 152.53125 23.417969 152.378906 23.269531 L 149.90625 23.726562 C 147.941406 22.898438 145.0625 21.070312 143.167969 18.585938 C 143.753906 14.558594 143.460938 11.289062 143.066406 9.113281 C 144.253906 8.125 145.222656 7.1875 145.222656 7.1875 C 146.042969 7.683594 146.21875 7.449219 146.332031 7.183594 C 146.203125 7.03125 144.984375 6.515625 145.183594 5.984375 C 145.953125 6.1875 146.125 5.949219 146.242188 5.519531 L 145.703125 5.328125 L 145.6875 5.328125 L 145.773438 5.039062 C 145.929688 4.71875 146.65625 5.019531 146.933594 4.9375 C 147.417969 4.644531 146.875 4.199219 147.039062 3.796875 C 145.90625 2.839844 143.867188 2.808594 142.628906 1.917969 C 142.246094 1.203125 142.089844 0.898438 141.691406 0.609375 C 141.277344 0.320312 139.488281 0.152344 139.152344 0.261719 C 138.824219 0.378906 138.195312 0.96875 138.195312 0.96875 C 136.910156 1.238281 136.136719 0.820312 135.253906 0.285156 C 135.253906 0.285156 135.441406 1.300781 136.453125 1.730469 C 135.558594 2.097656 135.164062 2.851562 135.019531 3.800781 C 133.792969 4.050781 133.746094 5.277344 133.90625 5.835938 C 132.898438 6.4375 132.996094 7.234375 133.351562 8.042969 C 132.453125 8.648438 132.589844 9.519531 132.847656 10.183594 C 132.09375 10.648438 132.847656 11.9375 132.960938 12.695312 C 135.128906 12.246094 137.832031 17.039062 141.71875 17.628906 C 142.449219 14.207031 141.535156 12.53125 140.691406 10.84375 C 141.324219 10.472656 142.011719 9.964844 142.679688 9.429688 C 143.066406 11.597656 143.347656 14.730469 142.910156 18.3125 C 142.882812 18.285156 142.855469 18.261719 142.835938 18.234375 C 142.59375 18.234375 142.347656 18.070312 142.152344 17.992188 C 142.191406 18.109375 142.640625 18.820312 142.550781 18.949219 C 142.550781 18.949219 141.289062 19.785156 138.792969 18.734375 C 138.125 20.296875 129.554688 24.136719 129.554688 24.136719 C 129.875 26.507812 131 28.082031 132.160156 29.367188 C 134 30.734375 135.964844 31.4375 138.289062 31.917969 C 138.777344 33.179688 140.347656 37.375 140.492188 38.050781 C 140.648438 38.722656 141.023438 38.722656 141.023438 38.722656 C 141.246094 39.027344 141.980469 40.363281 142.0625 41.003906 L 142.246094 43.269531 C 142.324219 43.789062 143 43.398438 143.125 43.839844 L 142.8125 45.363281 L 117.132812 45.367188 C 117.492188 43.566406 116.578125 41.992188 117.050781 40.386719 C 116.019531 38.585938 113.21875 37.34375 113.695312 34.976562 C 115.058594 33.09375 119.292969 31.257812 118.335938 28.984375 C 122.183594 27.027344 124.210938 30.292969 127.859375 30.050781 C 129.128906 29.980469 130.542969 29.839844 131.707031 29.496094 C 130.269531 28.25 128.894531 26.414062 128.167969 24.769531 C 120.53125 27.851562 113.101562 30.386719 104.816406 32.070312 L 104.179688 31.867188 C 103.550781 31.960938 94.425781 34.015625 92.007812 34.960938 C 91.375 34.578125 90.675781 34.308594 89.949219 34.167969 L 90.160156 34.167969 C 90.9375 34.167969 92.117188 33.753906 92.957031 33.460938 C 96.5 32.164062 97.804688 27.109375 99.394531 23.894531 C 100.785156 28.894531 104.015625 29.300781 105.890625 28.679688 L 106.066406 30.246094 C 106.066406 30.246094 107.699219 30.191406 108.929688 29.695312 C 108.804688 29.398438 108.640625 28.605469 108.523438 27.5625 C 109.269531 27.175781 109.671875 26.894531 110.011719 26.695312 C 110.113281 27.882812 110.1875 29 109.832031 29.601562 L 114.046875 28.476562 C 114.859375 24.824219 117.0625 19.746094 120.957031 16.039062 C 115.730469 13.957031 111.8125 16.335938 110.816406 17.289062 C 105.898438 18.863281 105.699219 25.667969 105.847656 28.011719 C 104.996094 28.179688 101.417969 29.421875 99.722656 23.214844 C 100.707031 20.832031 102.578125 18.183594 104.679688 16.117188 C 104.863281 15.964844 104.652344 15.71875 104.230469 15.964844 C 100.007812 18.871094 98.460938 23.984375 96.191406 28.304688 C 94.410156 30.984375 92.003906 32.4375 88.402344 32.285156 C 83.898438 32.214844 81.722656 27.511719 79.660156 24.457031 C 76.5 17.519531 68.320312 20.011719 62.242188 18.527344 C 61.902344 18.355469 61.226562 16.351562 60.261719 16.425781 C 59.574219 16.476562 60.21875 17.1875 59.824219 17.425781 C 59.0625 17.105469 58.421875 16.542969 57.464844 16.703125 C 56.863281 16.828125 56.703125 17.464844 56.746094 18.027344 C 57.222656 20.230469 59.582031 21.195312 61.339844 22 C 62.015625 23.007812 61.765625 26.503906 61.203125 27.703125 C 60.476562 29.039062 57.625 28.5625 57.054688 31.625 C 56.945312 32.246094 57.085938 32.789062 57.339844 33.296875 C 56.234375 33.878906 55.296875 34.738281 54.621094 35.792969 C 53.410156 36.085938 52.230469 36.410156 51.128906 36.804688 C 50.835938 36.910156 50.835938 37.078125 51.214844 37.167969 C 52.066406 37.339844 52.9375 37.484375 53.820312 37.597656 Z M 143.867188 20.425781 C 144.914062 21.570312 147.40625 23.304688 149 23.871094 L 144.382812 24.726562 C 144.902344 22.765625 143.125 22.011719 143.867188 20.425781 Z M 144.367188 4.550781 C 144.542969 4.480469 145.027344 4.667969 145.230469 4.722656 C 145.351562 4.75 145.304688 5.011719 145.242188 5.246094 C 144.941406 5.308594 144.472656 5.140625 144.40625 4.984375 C 144.320312 4.808594 144.199219 4.628906 144.371094 4.550781 Z M 144.40625 5.742188 C 144.464844 6.085938 144.601562 6.46875 144.800781 6.761719 C 144.796875 6.917969 143.941406 7.710938 142.957031 8.546875 C 142.710938 7.335938 142.460938 6.503906 142.402344 6.171875 C 142.796875 5.890625 143.855469 5.589844 144.40625 5.742188 Z M 139.984375 1.492188 C 140.15625 1.433594 140.511719 1.550781 140.605469 1.621094 C 140.703125 1.695312 140.625 1.988281 140.617188 2.085938 C 140.617188 2.183594 140.175781 2.394531 140.175781 2.394531 C 140.175781 2.394531 139.757812 2.074219 139.765625 1.976562 L 139.746094 1.964844 C 139.8125 1.804688 139.894531 1.644531 139.984375 1.492188 Z M 140.523438 10.453125 C 139.980469 9.347656 139.539062 8.179688 139.65625 6.46875 C 140.183594 6.460938 140.949219 6.808594 141.960938 6.347656 C 141.960938 6.347656 142.273438 7.296875 142.585938 8.847656 C 141.828125 9.476562 141.046875 10.089844 140.523438 10.453125 Z M 133.609375 29.65625 C 131.957031 28.828125 132.984375 29.523438 133.464844 29.164062 C 136.082031 30.371094 137.402344 30.09375 139.363281 29.855469 C 139.644531 30.214844 140.027344 30.554688 140.027344 31.03125 C 137.632812 31.714844 135.765625 30.828125 133.605469 29.660156 Z M 143.042969 42.589844 C 142.886719 41.316406 142.816406 40.414062 142.230469 39.808594 C 141.765625 38.539062 140.421875 35.019531 139.464844 31.847656 C 140.042969 31.269531 140.492188 31.570312 140.878906 33.148438 C 141.246094 34.421875 141.691406 35.472656 142.027344 36.535156 C 142.472656 37.605469 142.808594 39.027344 143.152344 39.777344 C 143.152344 39.777344 143.453125 39.832031 143.621094 40.234375 C 144.464844 42.589844 144.683594 42.964844 144.542969 44.085938 C 144.746094 44.96875 145.980469 44.25 145.867188 45.335938 L 143.246094 45.335938 L 144.398438 45.328125 C 143.605469 44.484375 144.167969 43.230469 143.042969 42.589844 Z M 91.910156 44.695312 C 91.183594 45.238281 90.316406 45.582031 89.367188 45.695312 C 89.273438 45.664062 89.191406 45.476562 89.1875 45.359375 L 89.035156 42.085938 C 89.03125 42.050781 89.089844 42.011719 89.125 42 C 89.203125 41.96875 89.425781 41.882812 89.515625 41.828125 C 89.550781 41.808594 89.640625 41.800781 89.671875 41.828125 L 91.816406 44.324219 C 91.894531 44.414062 91.960938 44.621094 91.902344 44.699219 Z M 88.59375 45.742188 C 87.722656 45.710938 86.910156 45.464844 86.195312 45.066406 C 86.136719 44.984375 86.15625 44.769531 86.222656 44.675781 L 88.015625 41.9375 C 88.03125 41.90625 88.101562 41.90625 88.144531 41.917969 C 88.21875 41.941406 88.394531 41.992188 88.496094 42.007812 C 88.539062 42.007812 88.613281 42.066406 88.613281 42.101562 L 88.773438 45.386719 C 88.777344 45.503906 88.683594 45.707031 88.589844 45.734375 Z M 84.070312 38.921875 C 83.953125 38.886719 83.777344 38.730469 83.785156 38.628906 C 83.949219 38.175781 84.160156 37.75 84.4375 37.363281 C 84.871094 37.238281 85.320312 37.121094 85.769531 37.003906 L 87.222656 38.832031 L 87.152344 38.84375 C 86.214844 38.957031 85.335938 39.015625 84.503906 39.027344 L 84.070312 38.914062 Z M 88.148438 35.171875 C 88.234375 35.207031 88.324219 35.394531 88.324219 35.507812 L 88.335938 35.761719 C 87.46875 35.929688 86.613281 36.121094 85.796875 36.328125 C 85.746094 36.222656 85.71875 36.097656 85.761719 36.039062 C 86.457031 35.566406 87.269531 35.273438 88.140625 35.175781 Z M 87.691406 38.746094 L 86.21875 36.898438 C 86.929688 36.722656 87.648438 36.566406 88.371094 36.421875 L 88.46875 38.585938 C 88.179688 38.65625 87.9375 38.703125 87.691406 38.746094 Z M 87.550781 39.328125 C 87.546875 39.347656 87.550781 39.367188 87.539062 39.386719 C 87.332031 39.734375 87.265625 39.789062 87.222656 39.785156 L 86.164062 39.492188 C 86.613281 39.445312 87.074219 39.40625 87.554688 39.324219 Z M 89.503906 38.933594 C 89.484375 38.960938 89.417969 38.960938 89.375 38.949219 L 89.359375 38.949219 L 89.515625 38.914062 L 89.507812 38.929688 Z M 88.886719 38.480469 L 88.785156 36.339844 C 89.671875 36.171875 90.542969 36.03125 91.375 35.933594 L 89.988281 38.1875 C 89.597656 38.304688 89.238281 38.390625 88.886719 38.480469 Z M 91.648438 36.417969 C 91.707031 36.324219 91.894531 36.214844 91.992188 36.234375 C 92.367188 36.53125 92.714844 36.875 93.007812 37.261719 C 92.222656 37.523438 91.410156 37.773438 90.605469 38.015625 Z M 88.75 35.683594 L 88.742188 35.480469 C 88.738281 35.359375 88.832031 35.144531 88.921875 35.125 C 89.472656 35.136719 89.996094 35.246094 90.488281 35.414062 C 89.910156 35.488281 89.335938 35.578125 88.75 35.679688 Z M 88.675781 35.117188 C 88.707031 35.117188 88.730469 35.109375 88.753906 35.109375 L 88.824219 35.113281 L 88.671875 35.113281 Z M 81.085938 38.730469 C 80.800781 38.644531 80.867188 38.558594 81.039062 38.484375 C 81.609375 38.257812 82.25 38.035156 82.921875 37.816406 C 82.757812 38.1875 82.632812 38.578125 82.535156 38.980469 C 82.042969 38.941406 81.558594 38.859375 81.085938 38.734375 Z M 83.535156 39.558594 C 83.964844 39.582031 84.40625 39.578125 84.847656 39.570312 L 87.097656 40.1875 C 87.128906 40.195312 87.152344 40.261719 87.152344 40.304688 C 87.152344 40.390625 87.164062 40.625 87.191406 40.726562 C 87.191406 40.765625 87.164062 40.796875 87.128906 40.8125 L 84.125 42.140625 C 84.015625 42.183594 83.800781 42.179688 83.730469 42.105469 C 83.546875 41.570312 83.445312 41.007812 83.4375 40.4375 C 83.4375 40.136719 83.476562 39.847656 83.523438 39.566406 Z M 83.867188 42.515625 L 83.859375 42.496094 C 83.859375 42.503906 83.867188 42.507812 83.867188 42.515625 Z M 84.03125 42.816406 C 84.03125 42.71875 84.191406 42.566406 84.292969 42.519531 L 87.308594 41.261719 C 87.335938 41.242188 87.394531 41.289062 87.417969 41.316406 C 87.46875 41.382812 87.546875 41.476562 87.621094 41.550781 C 87.65625 41.578125 87.683594 41.667969 87.667969 41.695312 L 85.871094 44.445312 C 85.804688 44.542969 85.609375 44.648438 85.515625 44.621094 C 84.894531 44.136719 84.390625 43.519531 84.035156 42.816406 Z M 85.820312 44.859375 C 85.792969 44.839844 85.769531 44.824219 85.746094 44.808594 L 85.824219 44.859375 Z M 88.75 45.75 L 88.746094 45.75 Z M 92.519531 44.1875 C 92.433594 44.242188 92.214844 44.132812 92.132812 44.042969 L 89.996094 41.554688 C 89.96875 41.53125 89.992188 41.464844 90.011719 41.429688 C 90.1875 41.125 90.253906 41.070312 90.296875 41.074219 L 93.457031 41.953125 C 93.558594 41.980469 93.71875 42.089844 93.753906 42.183594 C 93.484375 42.941406 93.074219 43.632812 92.519531 44.1875 Z M 93.964844 41.457031 C 93.910156 41.546875 93.671875 41.574219 93.558594 41.546875 L 90.410156 40.671875 C 90.375 40.664062 90.351562 40.597656 90.351562 40.558594 C 90.320312 40.152344 90.34375 40.066406 90.378906 40.046875 L 93.433594 38.886719 C 93.542969 38.84375 93.753906 38.867188 93.828125 38.9375 C 93.964844 39.414062 94.058594 39.90625 94.058594 40.429688 C 94.058594 40.777344 94.019531 41.125 93.957031 41.460938 Z M 93.558594 38.1875 C 93.558594 38.289062 93.398438 38.449219 93.289062 38.492188 L 93.492188 38.425781 L 90.238281 39.652344 C 90.203125 39.664062 90.148438 39.621094 90.125 39.59375 C 90.054688 39.492188 89.976562 39.398438 89.894531 39.308594 C 89.855469 39.28125 89.832031 39.199219 89.84375 39.164062 L 90.125 38.738281 C 91.117188 38.476562 92.183594 38.140625 93.316406 37.75 C 93.402344 37.894531 93.492188 38.039062 93.558594 38.191406 Z M 102.054688 33.511719 C 100.640625 34.535156 101.304688 35.738281 100.429688 35.980469 C 100.109375 35.933594 98.332031 36.257812 98.050781 36.386719 C 97.453125 35.828125 96.839844 35.351562 95.917969 35.109375 C 97.671875 34.386719 100.453125 33.671875 102.054688 33.511719 Z M 96.296875 36.054688 C 95.992188 36.199219 95.179688 36.511719 94.089844 36.894531 C 93.816406 36.484375 93.496094 36.109375 93.136719 35.773438 C 94.503906 35.703125 95.621094 35.773438 96.296875 36.054688 Z M 111.574219 18.101562 C 109.433594 20.257812 109.710938 23.476562 109.960938 26.011719 C 109.464844 26.371094 108.855469 26.671875 108.464844 26.894531 C 108.230469 23.785156 108.566406 19.148438 111.578125 18.101562 Z M 58.011719 19.195312 C 57.652344 18.710938 57.125 17.972656 57.535156 17.472656 C 57.835938 17.097656 58.449219 17.390625 58.808594 17.554688 C 59.113281 17.710938 61.511719 19.003906 62.164062 19.1875 C 67.007812 20.394531 73.128906 18.613281 76.964844 22.101562 C 77.15625 22.273438 77.292969 22.441406 77.25 22.679688 C 71.617188 18.835938 63.132812 24.523438 58.015625 19.195312 Z M 62.570312 25.40625 C 62.972656 25.648438 63.128906 26.289062 63.570312 26.648438 C 64.289062 27.851562 65.652344 28.25 66.371094 29.292969 C 66.128906 29.3125 65.882812 29.292969 65.644531 29.238281 C 65.175781 29.144531 64.988281 29.007812 64.59375 28.832031 C 64.386719 28.492188 63.863281 28.378906 63.449219 28.601562 C 63.121094 28.660156 62.214844 28.613281 61.609375 28.453125 C 61.726562 27.488281 62.65625 26.566406 62.566406 25.402344 Z M 56.933594 35.78125 L 58.40625 37.421875 C 57.339844 37.414062 56.308594 37.363281 55.332031 37.296875 C 55.257812 37.191406 55.214844 37.09375 55.238281 37.035156 C 55.425781 36.640625 55.65625 36.273438 55.917969 35.929688 C 56.246094 35.875 56.589844 35.828125 56.933594 35.785156 Z M 65.667969 36.1875 C 65.847656 36.449219 65.992188 36.726562 66.132812 37.015625 C 65.40625 37.121094 64.636719 37.203125 63.824219 37.269531 L 64.976562 36.28125 C 65.265625 36.046875 65.59375 36.097656 65.664062 36.1875 Z M 64.652344 35.929688 L 63.019531 37.324219 C 62.601562 37.355469 62.175781 37.367188 61.75 37.382812 L 62.417969 35.484375 C 63.246094 35.511719 64.054688 35.570312 64.804688 35.644531 C 64.769531 35.75 64.742188 35.851562 64.660156 35.929688 Z M 64.253906 44.488281 C 63.671875 44.914062 63.019531 45.226562 62.308594 45.425781 C 62.183594 45.410156 61.9375 45.210938 61.871094 44.921875 L 61.230469 41.453125 C 61.21875 41.410156 61.238281 41.355469 61.28125 41.339844 C 61.667969 41.148438 61.714844 41.167969 61.746094 41.199219 L 64.109375 43.800781 C 64.339844 44.074219 64.332031 44.390625 64.253906 44.484375 Z M 59.246094 38.359375 C 59.277344 38.386719 59.289062 38.449219 59.261719 38.484375 C 59.191406 38.574219 59.164062 38.601562 59.105469 38.710938 C 59.085938 38.75 59.035156 38.753906 58.988281 38.738281 L 56.355469 37.796875 C 57.167969 37.84375 57.984375 37.863281 58.800781 37.863281 Z M 61.859375 38.226562 C 61.550781 38.015625 61.539062 37.980469 61.554688 37.929688 L 61.605469 37.796875 L 62.523438 37.75 L 61.972656 38.214844 C 61.941406 38.242188 61.894531 38.253906 61.859375 38.226562 Z M 61.234375 37.398438 C 61.003906 37.40625 60.78125 37.417969 60.554688 37.421875 L 60.542969 37.421875 L 60.179688 35.476562 C 60.296875 35.46875 60.398438 35.453125 60.511719 35.445312 C 60.992188 35.445312 61.457031 35.464844 61.925781 35.476562 L 61.230469 37.402344 Z M 59.703125 35.503906 L 60.058594 37.421875 C 59.722656 37.425781 59.390625 37.425781 59.050781 37.421875 L 57.484375 35.707031 C 58.203125 35.621094 58.941406 35.554688 59.703125 35.503906 Z M 60.09375 37.859375 C 60.085938 37.871094 60.09375 37.890625 60.078125 37.898438 C 59.6875 38.097656 59.640625 38.074219 59.613281 38.042969 L 59.449219 37.863281 C 59.664062 37.859375 59.886719 37.863281 60.097656 37.855469 Z M 55.105469 37.277344 C 55.117188 37.253906 55.136719 37.226562 55.144531 37.199219 Z M 54.835938 38.152344 C 54.902344 38.046875 55.214844 37.914062 55.507812 38.007812 L 58.824219 39.195312 C 58.863281 39.207031 58.898438 39.253906 58.886719 39.296875 C 58.859375 39.667969 58.820312 39.695312 58.78125 39.707031 L 55.316406 40.355469 C 54.976562 40.402344 54.738281 40.238281 54.6875 40.121094 C 54.675781 39.945312 54.640625 39.785156 54.640625 39.609375 C 54.640625 39.105469 54.714844 38.621094 54.835938 38.152344 Z M 54.894531 41.273438 C 54.90625 41.144531 55.105469 40.882812 55.40625 40.816406 L 58.855469 40.183594 C 58.996094 40.339844 59.007812 40.386719 59.070312 40.488281 C 59.089844 40.53125 59.078125 40.570312 59.042969 40.605469 L 56.296875 42.820312 C 56 43.042969 55.6875 42.996094 55.613281 42.90625 C 55.296875 42.398438 55.054688 41.851562 54.894531 41.273438 Z M 55.722656 43.066406 C 55.691406 43.027344 55.664062 42.992188 55.640625 42.949219 C 55.65625 42.984375 55.691406 43.027344 55.71875 43.066406 Z M 56.367188 43.855469 C 56.304688 43.757812 56.351562 43.390625 56.59375 43.1875 L 59.335938 40.992188 C 59.367188 40.953125 59.414062 40.945312 59.453125 40.976562 C 59.53125 41.050781 59.65625 41.144531 59.761719 41.203125 C 59.804688 41.226562 59.820312 41.261719 59.796875 41.3125 L 58.605469 44.628906 C 58.480469 44.964844 58.210938 45.097656 58.09375 45.074219 C 57.453125 44.769531 56.871094 44.355469 56.371094 43.851562 Z M 58.378906 45.214844 L 58.375 45.214844 Z M 59.207031 45.476562 C 59.097656 45.410156 58.945312 45.109375 59.039062 44.8125 L 60.238281 41.484375 C 60.25 41.441406 60.292969 41.410156 60.335938 41.421875 C 60.441406 41.441406 60.539062 41.449219 60.664062 41.449219 C 60.710938 41.449219 60.742188 41.488281 60.75 41.535156 L 61.398438 45.007812 C 61.449219 45.34375 61.296875 45.5625 61.179688 45.628906 C 61.015625 45.640625 60.855469 45.679688 60.6875 45.679688 C 60.171875 45.679688 59.6875 45.601562 59.214844 45.476562 Z M 64.921875 43.9375 C 64.949219 43.90625 64.976562 43.878906 64.996094 43.847656 C 64.964844 43.878906 64.945312 43.90625 64.921875 43.9375 Z M 65.132812 43.6875 C 65.023438 43.757812 64.683594 43.734375 64.464844 43.507812 L 62.117188 40.882812 C 62.089844 40.851562 62.078125 40.796875 62.109375 40.757812 C 62.28125 40.488281 62.332031 40.480469 62.371094 40.5 L 65.734375 41.699219 C 66.082031 41.835938 66.171875 42.113281 66.140625 42.222656 C 65.878906 42.753906 65.546875 43.25 65.144531 43.6875 Z M 66.148438 42.171875 C 66.195312 42.085938 66.25 41.945312 66.304688 41.804688 C 66.257812 41.929688 66.203125 42.050781 66.148438 42.167969 Z M 66.53125 41.078125 C 66.484375 41.1875 66.183594 41.351562 65.875 41.25 L 62.527344 40.046875 C 62.488281 40.035156 62.457031 39.992188 62.460938 39.945312 C 62.476562 39.835938 62.488281 39.785156 62.488281 39.664062 C 62.488281 39.617188 62.53125 39.59375 62.570312 39.578125 L 66.101562 39.027344 C 66.449219 38.980469 66.667969 39.148438 66.703125 39.265625 C 66.710938 39.382812 66.734375 39.5 66.734375 39.617188 C 66.734375 40.117188 66.65625 40.605469 66.539062 41.074219 Z M 66.519531 38.109375 C 66.519531 38.246094 66.316406 38.496094 66.011719 38.554688 L 62.503906 39.105469 C 62.226562 38.664062 62.238281 38.621094 62.269531 38.585938 L 63.3125 37.6875 C 64.3125 37.613281 65.300781 37.5 66.28125 37.355469 C 66.375 37.601562 66.445312 37.847656 66.511719 38.109375 Z M 68.324219 36.289062 C 68.550781 36.359375 68.628906 36.511719 68.34375 36.589844 C 68.039062 36.671875 67.675781 36.734375 67.328125 36.808594 C 67.195312 36.5 67.023438 36.21875 66.855469 35.9375 C 67.398438 36.042969 67.898438 36.15625 68.320312 36.285156 Z M 62.589844 35 L 62.738281 34.585938 C 62.863281 34.253906 63.140625 34.140625 63.269531 34.160156 C 63.832031 34.433594 64.351562 34.785156 64.808594 35.207031 C 64.070312 35.113281 63.332031 35.042969 62.589844 35.003906 Z M 62.132812 33.75 C 62.242188 33.832031 62.382812 34.144531 62.292969 34.433594 L 62.09375 34.988281 C 61.558594 34.964844 61.027344 34.933594 60.492188 34.941406 C 60.351562 34.941406 60.222656 34.96875 60.078125 34.96875 L 59.945312 34.226562 C 59.890625 33.882812 60.050781 33.660156 60.171875 33.605469 C 60.34375 33.59375 60.507812 33.554688 60.675781 33.554688 C 61.183594 33.554688 61.664062 33.632812 62.132812 33.75 Z M 59.03125 33.808594 C 59.160156 33.824219 59.414062 34.023438 59.480469 34.320312 L 59.566406 34.796875 C 59.269531 34.519531 58.996094 34.222656 58.75 33.898438 L 59.03125 33.8125 Z M 58.828125 35.066406 C 58.265625 35.121094 57.703125 35.183594 57.152344 35.273438 C 57.035156 35.046875 57.027344 34.835938 57.09375 34.761719 C 57.367188 34.558594 57.667969 34.375 57.980469 34.21875 C 58.230469 34.503906 58.515625 34.789062 58.828125 35.066406 Z M 56.414062 35.316406 Z M 52.730469 36.703125 C 53.183594 36.539062 53.734375 36.386719 54.34375 36.242188 C 54.183594 36.539062 54.042969 36.847656 53.921875 37.167969 C 53.507812 37.117188 53.082031 37.070312 52.734375 37.003906 C 52.4375 36.949219 52.511719 36.78125 52.734375 36.703125 Z M 159.175781 19.492188 C 159.054688 19.59375 159.011719 19.730469 159.109375 19.753906 C 159.296875 19.789062 159.402344 19.851562 159.617188 20.046875 C 159.730469 20.105469 159.703125 19.925781 159.671875 19.828125 C 159.558594 19.550781 159.3125 19.378906 159.179688 19.492188 Z M 159.175781 19.492188 " data-index="1"></path>
<path style="fill-rule: nonzero; fill: rgb(255, 255, 255); fill-opacity: 1; opacity: 1; visibility: visible;" d="M 154.824219 45.355469 L 149.125 45.355469 C 149.050781 45.742188 149.5 46.027344 149.761719 46.324219 L 155.988281 46.324219 L 157.726562 45.476562 C 158.035156 44.722656 157.414062 44.050781 157.4375 43.441406 C 157.542969 41.625 156.53125 39.808594 155.996094 38.144531 C 156.34375 37.777344 156.78125 36.925781 157.351562 37.152344 C 158.683594 39.230469 158.929688 41.886719 158.703125 44.53125 C 158.570312 45.1875 157.457031 45.78125 157.492188 46.398438 C 157.511719 46.613281 158.972656 46.519531 159.574219 46.003906 C 159.683594 45.582031 160.464844 45.058594 160.71875 44.996094 C 160.996094 44.199219 160.5625 44.222656 160.628906 43.742188 C 160.769531 43.40625 160.585938 39.804688 160.335938 39.417969 C 160.242188 39.359375 160.210938 39.359375 160.203125 39.367188 C 159.925781 38.652344 160.605469 37.558594 160.878906 36.882812 L 162.867188 36.703125 C 162.628906 34.929688 161.996094 33.085938 161.597656 31.265625 C 161.839844 30.84375 162.28125 30.511719 162.683594 30.269531 C 164.78125 28.886719 162.933594 26.652344 162.863281 24.925781 C 162.507812 24.03125 161.277344 23.332031 161.164062 22.34375 C 161.417969 22.542969 161.613281 22.460938 161.667969 22.476562 C 162.269531 22.0625 162.238281 21.464844 161.941406 20.71875 C 162.851562 19.632812 163.410156 19.132812 163.578125 18.789062 C 163.519531 17.878906 162.058594 16.519531 161.203125 16.519531 C 160.699219 16.800781 160.363281 17.363281 159.4375 18.085938 C 159.40625 18.121094 158.320312 17.707031 157.996094 18.054688 C 157.675781 18.316406 157.785156 19.160156 158.371094 19.617188 C 158.300781 19.839844 158.230469 19.925781 158.109375 20.195312 C 158.046875 20.332031 158.019531 20.472656 158.101562 20.550781 C 158.292969 20.726562 158.363281 20.996094 158.226562 21.410156 C 158.082031 21.851562 158.574219 22.179688 158.75 22.242188 C 158.777344 22.25 158.835938 22.3125 158.894531 22.386719 C 158.957031 22.875 157.304688 23.753906 157.304688 24.132812 C 157.171875 25.273438 156.464844 25.160156 155.773438 28.910156 C 155.859375 29.820312 155.847656 30.625 155.785156 31.34375 C 154.9375 33.585938 154.246094 34.878906 153.671875 36.5 C 153.199219 37.835938 155.867188 41.707031 155.90625 44.347656 C 155.328125 45.21875 154.863281 45.09375 154.824219 45.355469 Z M 159.15625 41.339844 C 159.019531 40.980469 158.90625 40.476562 158.972656 40.101562 C 159.207031 39.878906 159.640625 40.042969 159.863281 40.007812 C 160.132812 41.257812 160.199219 41.429688 159.15625 41.34375 Z M 159.175781 22.867188 C 159.25 22.808594 159.320312 22.625 159.363281 22.554688 C 160.242188 21.992188 159.636719 22.398438 158.761719 21.9375 C 158.480469 21.792969 158.472656 21.519531 158.507812 21.132812 C 158.558594 20.652344 158.363281 20.558594 158.289062 20.40625 C 158.257812 20.34375 158.394531 20.105469 158.507812 19.941406 C 158.710938 19.632812 158.894531 18.992188 158.988281 18.835938 C 160.445312 18.894531 160.121094 19.539062 160.15625 19.65625 C 160.273438 19.96875 160.882812 20.644531 161.179688 20.855469 C 161.09375 21.738281 160.402344 21.21875 160.710938 22.023438 C 160.628906 23.554688 158.816406 23.359375 158.042969 24.617188 C 157.964844 23.371094 159.058594 23.375 159.175781 22.863281 Z M 157.523438 29.445312 C 157.917969 29.804688 158.332031 30.253906 158.636719 30.328125 C 158.84375 30.851562 158.199219 30.925781 157.96875 31.171875 C 157.425781 31.253906 157.222656 30.675781 156.90625 30.9375 C 156.835938 30.996094 156.507812 30.929688 156.515625 30.867188 C 156.6875 30.402344 157.171875 29.734375 157.519531 29.441406 Z M 154.085938 37.234375 C 153.882812 36.175781 155.285156 34.53125 156.21875 31.304688 C 156.601562 31.171875 156.804688 32.050781 157.351562 31.710938 C 158.191406 31.734375 157.832031 33.925781 158.613281 32.53125 C 158.597656 31.914062 158.582031 31.222656 159.066406 30.894531 C 159.59375 30.773438 159.9375 31.070312 159.972656 31.535156 L 159.160156 32.800781 C 160.695312 32.859375 158.667969 35.335938 160.695312 34.882812 C 160.628906 35.8125 160.132812 38.417969 159.773438 38.289062 C 159.496094 36.84375 159.269531 37.445312 159.269531 37.871094 C 159.328125 38.429688 159.316406 38.886719 159.648438 39.339844 C 159.539062 39.457031 159.125 39.445312 159.007812 39.46875 C 157.859375 37.828125 157.90625 35.578125 157.167969 33.792969 C 157.042969 33.785156 156.886719 33.9375 156.890625 34.070312 C 156.804688 35.144531 156.386719 36.695312 155.507812 37.207031 C 154.957031 37.53125 156.71875 37.335938 155.273438 38.015625 C 155.824219 38.378906 155.316406 38.878906 154.710938 38.878906 C 154.410156 38.234375 154.179688 37.699219 154.089844 37.230469 Z M 155.609375 40.796875 C 155.398438 40.550781 155.078125 39.84375 154.945312 39.539062 L 155.789062 39.191406 C 156.046875 39.480469 156.308594 40.023438 156.347656 40.5 C 156.160156 40.601562 155.898438 40.773438 155.609375 40.796875 Z M 128.535156 23.476562 C 128.410156 21.761719 129.117188 20.308594 128.320312 18.480469 C 128.328125 17.722656 128.855469 17.144531 128.714844 16.445312 L 127.417969 16.757812 C 127.21875 18.199219 126.980469 18.675781 127.175781 20.035156 C 127.519531 21.589844 127.691406 23.003906 128.535156 23.480469 Z M 115.144531 28.273438 C 120.101562 26.878906 123.527344 25.6875 127.632812 23.957031 C 125.921875 20.296875 126.300781 19.238281 126.445312 16.894531 C 126.445312 16.894531 124.359375 16.925781 121.929688 16.28125 C 119.054688 18.140625 115.695312 24.792969 115.144531 28.269531 Z M 132.160156 29.332031 C 131.894531 29.070312 132.289062 29.488281 132.160156 29.332031 Z M 138.121094 18.234375 C 136.03125 16.792969 134.414062 13.4375 132.136719 13.664062 C 131.917969 11.195312 130.84375 7.003906 134.246094 2.578125 C 134.6875 2.375 135.40625 2.296875 135.683594 1.976562 C 134.292969 1.832031 132.460938 2.691406 131.132812 1.9375 C 131.132812 1.9375 131.746094 3.011719 132.460938 3.175781 C 131.992188 3.816406 131.078125 4.269531 131.632812 5.382812 C 130.496094 6.0625 130.925781 7.074219 131.277344 7.621094 C 130.707031 8.207031 130.363281 9.261719 131.117188 9.90625 C 130.191406 10.902344 131.339844 11.746094 131.609375 12.085938 C 131.140625 13.082031 131.59375 13.851562 131.59375 13.851562 C 131.574219 14.570312 130.300781 15.59375 129.839844 15.925781 C 129.289062 17.609375 129.5 21 129.582031 23.246094 C 132.6875 21.761719 135.730469 20.34375 138.121094 18.230469 Z M 102.453125 77.804688 C 102.453125 76.03125 101.269531 73.941406 99.648438 72.957031 C 99.253906 72.71875 98.808594 72.570312 98.34375 72.535156 C 98.738281 72.558594 99.273438 72.527344 99.773438 72.320312 C 101.46875 71.574219 103.457031 69.445312 103.457031 65.855469 C 103.457031 63.203125 102.316406 61.0625 100.382812 59.652344 C 98.574219 58.339844 96.429688 58.042969 94.285156 58.042969 L 77.40625 58.042969 L 77.40625 62.34375 L 81.207031 62.34375 L 81.207031 84.003906 L 77.40625 84.003906 L 77.40625 88.289062 L 89.394531 88.289062 L 89.394531 84.003906 L 85.644531 84.003906 L 85.644531 74.460938 L 93.929688 74.460938 C 96.785156 74.496094 97.890625 76.378906 97.949219 77.996094 L 98.15625 88.28125 L 106.4375 88.28125 L 106.4375 84.003906 L 102.566406 84.003906 L 102.453125 77.808594 Z M 94.824219 70.308594 L 85.644531 70.308594 L 85.644531 62.347656 L 94.332031 62.347656 C 95.230469 62.347656 96.351562 62.316406 97.222656 62.761719 C 98.289062 63.304688 99.289062 64.476562 99.289062 66.386719 C 99.289062 68.597656 97.273438 70.3125 94.824219 70.3125 Z M 75.90625 98.921875 L 70.1875 98.921875 L 70.1875 116.203125 L 72.738281 116.203125 L 72.738281 108.722656 L 75.570312 108.722656 C 79.6875 108.722656 81.558594 106.601562 81.558594 103.890625 C 81.558594 101.152344 79.789062 98.921875 75.90625 98.921875 Z M 75.804688 106.5 L 72.746094 106.5 L 72.746094 101.152344 L 75.910156 101.152344 C 78.230469 101.152344 78.925781 102.519531 78.925781 103.777344 C 78.925781 105.507812 77.707031 106.5 75.804688 106.5 Z M 91.476562 98.820312 L 83.84375 116.199219 L 86.601562 116.199219 L 88.6875 111.105469 L 96.242188 111.105469 L 98.402344 116.199219 L 101.214844 116.199219 L 93.269531 98.820312 L 91.472656 98.820312 Z M 89.679688 108.875 L 92.335938 102.046875 L 95.199219 108.875 L 89.675781 108.875 Z M 127.355469 98.921875 L 129.910156 98.921875 L 129.910156 116.203125 L 127.355469 116.203125 Z M 140.519531 102.976562 C 140.519531 101.757812 141.761719 100.921875 143.488281 100.921875 C 144.765625 100.921875 146.308594 101.328125 147.902344 102.722656 L 147.902344 99.90625 C 146.644531 99.121094 145.195312 98.703125 143.710938 98.695312 C 140.265625 98.695312 138.007812 100.488281 138.007812 103.300781 C 138.007812 108.039062 146.136719 108.445312 146.136719 112.019531 C 146.136719 112.976562 145.171875 114.191406 143.078125 114.191406 C 141.226562 114.191406 139.5 113.304688 138.117188 111.695312 L 138.117188 114.832031 C 139.691406 115.921875 141.335938 116.429688 143.378906 116.429688 C 146.410156 116.429688 148.640625 114.449219 148.640625 111.742188 C 148.652344 106.242188 140.519531 106.296875 140.519531 102.972656 Z M 118.335938 112.78125 C 116.953125 110.628906 115.945312 109.03125 114.304688 107.992188 C 116.238281 107.261719 117.324219 105.761719 117.324219 103.765625 C 117.324219 100.777344 115.039062 98.925781 111.378906 98.925781 L 106.808594 98.925781 L 106.808594 116.207031 L 109.410156 116.207031 L 109.410156 108.699219 L 110.5 108.699219 C 111.828125 108.699219 112.917969 109.109375 115.308594 112.652344 L 117.589844 116.203125 L 120.644531 116.203125 L 119.300781 114.191406 C 118.964844 113.730469 118.640625 113.261719 118.335938 112.78125 Z M 111.085938 106.476562 L 109.417969 106.476562 L 109.417969 101.050781 L 111.085938 101.050781 C 113.609375 101.050781 114.621094 102.039062 114.648438 103.660156 C 114.667969 105.113281 113.878906 106.472656 111.085938 106.472656 Z M 111.085938 106.476562 " data-index="2"></path>
</g>
</svg>