<?xml version="1.0" encoding="UTF-8"?>
<svg xmlns="http://www.w3.org/2000/svg" xmlns:xlink="http://www.w3.org/1999/xlink" width="200px" height="126px" viewBox="0 0 329 126" version="1.1">
<g id="surface1">
<path style=" stroke:none;fill-rule:nonzero;fill:rgb(0%,20.392157%,47.058824%);fill-opacity:1;" d="M 164.5 1.21875 C 73.199219 1.21875 0 28.628906 0 62.992188 C 0 97.152344 73.804688 124.78125 164.5 124.78125 C 255.210938 124.78125 329 97.0625 329 62.992188 C 329 28.921875 255.210938 1.21875 164.5 1.21875 "/>
<path style=" stroke:none;fill-rule:nonzero;fill:rgb(100%,100%,100%);fill-opacity:1;" d="M 229.300781 76.078125 C 229.34375 76.371094 229.710938 76.636719 230.066406 76.769531 C 230.210938 76.816406 230.269531 76.902344 230.125 77.214844 C 229.09375 79.394531 228.167969 80.660156 226.886719 82.578125 C 225.710938 84.34375 224.371094 85.714844 222.765625 87.042969 C 220.324219 89.0625 216.953125 91.242188 214.160156 89.78125 C 212.921875 89.132812 212.394531 87.394531 212.40625 85.996094 C 212.46875 82.03125 214.234375 77.980469 217.46875 73.984375 C 221.425781 69.121094 225.796875 66.589844 228.652344 67.957031 C 231.625 69.386719 230.683594 72.820312 229.359375 75.519531 M 261.140625 45.28125 C 261.347656 44.898438 261.140625 44.617188 260.65625 44.617188 L 252.339844 44.617188 C 251.722656 44.617188 251.398438 44.707031 251.121094 45.28125 C 250.164062 47.105469 238.539062 64.539062 236.375 67.929688 C 236.023438 68.445312 235.566406 68.371094 235.523438 67.78125 C 235.300781 65.777344 233.566406 63.464844 230.828125 62.359375 C 228.859375 61.5625 226.707031 61.308594 224.605469 61.621094 C 220.78125 62.152344 217.382812 64.171875 214.378906 66.441406 C 209.878906 69.875 205.992188 74.324219 200.960938 77.625 C 198.210938 79.410156 194.457031 80.96875 191.941406 78.640625 C 189.675781 76.535156 189.925781 71.835938 193.414062 68.210938 C 193.78125 67.824219 194.222656 68.148438 194.148438 68.488281 C 196.988281 74.265625 199.152344 74.429688 201.019531 73.5 C 203.140625 72.390625 204.582031 70.308594 204.875 67.929688 C 205.125 66.1875 204.636719 64.417969 203.53125 63.046875 C 202.425781 61.675781 200.800781 60.828125 199.046875 60.707031 C 196.164062 60.503906 193.382812 61.503906 190.675781 63.746094 C 189.398438 64.777344 188.285156 66 187.378906 67.371094 C 187.085938 67.78125 186.660156 67.8125 186.671875 67.222656 C 186.804688 62.476562 184.847656 59.808594 180.933594 59.722656 C 177.902344 59.648438 174.652344 61.296875 172.121094 63.316406 C 169.355469 65.542969 166.929688 68.503906 164.324219 71.273438 C 164.015625 71.628906 163.734375 71.613281 163.632812 70.949219 C 163.644531 68.003906 162.847656 65.113281 161.320312 62.59375 C 158.394531 62.210938 156.9375 62.875 155.878906 63.746094 C 155.347656 64.1875 155.140625 64.804688 155.378906 65.617188 C 156.773438 70.300781 156.464844 75.636719 154.566406 80.144531 C 152.816406 84.269531 149.433594 88 145.445312 89.253906 C 142.828125 90.09375 140.089844 89.679688 138.398438 87.335938 C 136.085938 84.125 137.015625 78.539062 140.472656 73.882812 C 143.53125 69.785156 147.945312 67.191406 152.347656 65.511719 C 152.863281 65.320312 152.980469 64.980469 152.832031 64.539062 L 152.050781 62.386719 C 151.640625 61.296875 150.507812 61.136719 149.140625 61.285156 C 145.929688 61.652344 143.046875 62.757812 140.191406 64.273438 C 132.734375 68.28125 128.980469 76.035156 127.347656 80.191406 C 126.792969 81.746094 126.003906 83.207031 125.007812 84.523438 C 123.832031 85.996094 122.359375 87.351562 119.652344 89.722656 C 119.984375 91.824219 120.683594 92.75 121.507812 93.554688 C 121.949219 93.777344 122.460938 93.464844 122.667969 93.320312 C 124.550781 92.039062 126.816406 90.003906 127.921875 88.617188 C 128.304688 88.148438 128.714844 88.351562 128.921875 89.0625 C 129.933594 92.796875 132.738281 95.785156 136.398438 97.03125 C 143.238281 99.347656 150.34375 96 155.699219 90.164062 C 159.101562 86.480469 160.335938 84.078125 161.644531 82.472656 C 163.851562 79.71875 168.222656 73.574219 173.417969 69.636719 C 175.328125 68.179688 177.582031 67.074219 178.714844 67.8125 C 179.625 68.402344 179.921875 69.769531 178.464844 72.4375 C 173.167969 82.132812 165.367188 93.511719 163.925781 96.28125 C 163.660156 96.753906 163.898438 97.136719 164.398438 97.136719 L 172.429688 97.136719 C 172.855469 97.105469 173.046875 96.914062 173.253906 96.621094 C 177.316406 90.238281 181.140625 84.167969 185.246094 77.90625 C 185.480469 77.523438 185.6875 77.816406 185.6875 77.980469 C 185.789062 79.421875 186.128906 81.414062 187.011719 82.722656 C 188.304688 84.902344 190.660156 86.226562 193.191406 86.203125 C 194.917969 86.226562 196.625 85.863281 198.195312 85.140625 C 199.902344 84.507812 201.285156 83.683594 202.3125 82.929688 C 202.933594 82.503906 203.050781 83.226562 203.019531 83.328125 C 202.078125 88.382812 203.242188 94.378906 208.273438 96.886719 C 214.277344 99.832031 220.882812 95.675781 224.695312 91.90625 C 225.0625 91.535156 225.460938 91.582031 225.503906 92.363281 C 225.589844 93.804688 226.238281 95.5 227.417969 96.707031 C 230.59375 99.90625 237.023438 98.625 243.46875 93.628906 C 247.617188 90.429688 251.945312 85.90625 255.859375 81.117188 C 256.003906 80.941406 256.121094 80.644531 255.828125 80.335938 C 255.238281 79.71875 254.371094 79.011719 253.78125 78.449219 C 253.519531 78.214844 253.121094 78.289062 252.898438 78.449219 C 248.882812 82.28125 245.265625 86.628906 240.054688 90.238281 C 238.289062 91.460938 235.492188 92.449219 234.230469 90.753906 C 233.726562 90.09375 233.789062 89.179688 234.273438 87.957031 C 235.789062 84.167969 259.875 47.429688 261.140625 45.265625 "/>
<path style=" stroke:none;fill-rule:nonzero;fill:rgb(100%,100%,100%);fill-opacity:1;" d="M 147.785156 49.714844 C 147.886719 50.261719 148.109375 50.363281 148.359375 50.304688 C 152.449219 46.828125 152.789062 45.292969 152.066406 44.675781 C 151.417969 44.128906 150.375 44.277344 149.59375 44.96875 C 148.25 46.160156 147.574219 47.933594 147.785156 49.714844 M 86.382812 97.003906 C 77.410156 97.0625 69.492188 91.507812 68.582031 81.871094 C 68.054688 76.859375 69.496094 71.839844 72.597656 67.871094 C 75.277344 64.378906 79.808594 61.488281 83.632812 60.78125 C 84.867188 60.546875 86.546875 60.695312 87.238281 61.519531 C 88.328125 62.785156 88.019531 64.171875 86.929688 64.730469 C 84 66.21875 80.484375 68.785156 78.75 72.277344 C 77.113281 75.300781 77.289062 78.984375 79.203125 81.839844 C 82.808594 87.292969 92.875 87.441406 102.214844 78.746094 C 104.542969 76.609375 106.601562 74.558594 108.707031 72.144531 C 112.824219 67.429688 114.195312 65.703125 119.667969 58.101562 C 119.726562 58.011719 119.753906 57.894531 119.726562 57.851562 C 119.683594 57.746094 119.609375 57.730469 119.445312 57.703125 C 115.796875 57.820312 112.605469 58.910156 109.515625 61.222656 C 108.632812 61.871094 107.335938 61.785156 106.777344 60.929688 C 106.160156 59.957031 106.601562 58.691406 107.632812 57.980469 C 112.605469 54.503906 118.046875 53.886719 123.609375 52.941406 C 123.609375 52.941406 123.992188 52.941406 124.316406 52.542969 C 126.597656 49.597656 128.320312 46.960938 130.746094 43.996094 C 133.203125 40.992188 136.367188 38.222656 138.78125 36.144531 C 142.164062 33.242188 144.328125 32.269531 146.519531 31.058594 C 147.109375 30.765625 146.445312 30.398438 146.269531 30.398438 C 133.984375 28.082031 121.226562 25.089844 109.027344 29.617188 C 100.582031 32.769531 96.875 39.488281 98.65625 43.96875 C 99.921875 47.152344 104.101562 47.652344 108.015625 45.738281 C 111.25 44.160156 114.265625 41.582031 116.402344 38.28125 C 117.578125 36.4375 120.09375 37.765625 118.738281 40.960938 C 115.164062 49.363281 108.351562 56.023438 100.054688 56.300781 C 92.976562 56.539062 88.414062 51.320312 88.429688 44.898438 C 88.460938 32.222656 102.554688 23.882812 117.34375 22.628906 C 135.175781 21.15625 152.066406 25.917969 169.765625 28.066406 C 183.332031 29.703125 196.339844 29.75 209.980469 26.59375 C 211.597656 26.253906 212.71875 27.289062 212.628906 28.90625 C 212.480469 31.265625 210.65625 33.535156 206.167969 35.980469 C 201.0625 38.796875 195.722656 39.652344 190.132812 39.695312 C 176.652344 39.8125 164.089844 34.539062 151.066406 31.707031 C 151.082031 32.28125 151.242188 32.960938 150.773438 33.328125 C 143.5625 38.632812 137.042969 44.042969 132.675781 51.632812 C 132.527344 51.808594 132.617188 51.984375 132.867188 51.957031 C 136.660156 51.765625 140.058594 51.660156 143.605469 51.367188 C 144.210938 51.320312 144.238281 51.175781 144.195312 50.71875 C 143.808594 47.875 144.828125 45.019531 146.933594 43.070312 C 149.285156 40.960938 152.230469 40.710938 154.1875 42.246094 C 156.394531 43.96875 156.203125 47.09375 154.996094 49.421875 C 153.894531 51.492188 152.007812 53.027344 149.757812 53.679688 C 149.757812 53.679688 149.34375 53.769531 149.402344 54.136719 C 149.476562 54.726562 152.15625 56.214844 152.375 56.613281 C 152.597656 56.996094 152.480469 57.570312 152.082031 58.011719 C 150.332031 58.628906 150.050781 58.46875 149.460938 58.144531 C 148.058594 57.394531 146.8125 56.382812 145.785156 55.167969 C 145.429688 54.742188 145.253906 54.726562 144.414062 54.785156 C 140.589844 55.003906 134.617188 55.582031 130.585938 56.082031 C 129.597656 56.199219 129.453125 56.390625 129.261719 56.730469 C 122.816406 67.371094 115.929688 78.847656 108.367188 86.539062 C 100.273438 94.777344 93.535156 96.945312 86.382812 97.003906 "/>
<path style=" stroke:none;fill-rule:nonzero;fill:rgb(100%,100%,100%);fill-opacity:1;" d="M 164.5 11.328125 C 80.5 11.328125 12.417969 34.566406 12.417969 63.023438 C 12.417969 91.460938 80.5 114.714844 164.5 114.714844 C 248.5 114.714844 316.582031 91.460938 316.582031 63.023438 C 316.582031 34.582031 248.484375 11.328125 164.5 11.328125 M 164.5 119.402344 C 77.4375 119.402344 6.871094 94.160156 6.871094 63.023438 C 6.871094 31.871094 77.4375 6.640625 164.5 6.640625 C 251.546875 6.640625 322.113281 31.871094 322.113281 63.023438 C 322.113281 94.160156 251.546875 119.402344 164.5 119.402344 "/>
</g>
</svg>
