<?xml version="1.0" encoding="UTF-8"?>
<svg xmlns="http://www.w3.org/2000/svg" xmlns:xlink="http://www.w3.org/1999/xlink" width="200px" height="126px" viewBox="0 0 199 126" version="1.1">
<g id="surface1">
<path style=" stroke:none;fill-rule:nonzero;fill:rgb(100%,100%,100%);fill-opacity:1;" d="M 26.414062 117.664062 C 28.515625 117.714844 28.863281 119.164062 28.328125 120.355469 L 27.640625 121.890625 C 27.375 122.480469 27.410156 122.449219 26.640625 122.449219 L 2.160156 122.40625 L 0.105469 126 L 38.585938 125.933594 L 42.515625 118.488281 C 43.757812 115.890625 42.542969 113.777344 39.441406 113.714844 L 23.929688 113.753906 C 22.566406 113.753906 21.921875 112.472656 22.339844 111.359375 L 22.984375 109.628906 C 23.308594 108.773438 23.3125 108.828125 24.199219 108.820312 L 47.589844 108.738281 L 49.640625 104.984375 L 16.007812 105 C 12.875 105.007812 10.785156 107.316406 9.964844 108.761719 L 8.257812 111.757812 C 6.769531 114.363281 7.75 117.722656 11.988281 117.644531 Z M 91.886719 104.996094 L 121.96875 104.996094 C 124.554688 104.996094 125.816406 107.882812 124.4375 110.257812 L 117.339844 122.480469 C 116.214844 124.414062 113.707031 125.996094 111.777344 125.996094 L 81.675781 125.984375 C 79.066406 125.984375 77.453125 123.664062 78.804688 121.351562 L 86.320312 108.507812 C 87.453125 106.578125 89.953125 104.996094 91.886719 104.996094 Z M 108.429688 108.8125 L 100.699219 108.8125 C 99.8125 108.8125 98.683594 109.539062 98.179688 110.421875 L 92.824219 119.925781 C 92.144531 121.136719 92.992188 122.453125 94.230469 122.453125 L 102.265625 122.453125 C 103.148438 122.453125 104.28125 121.726562 104.78125 120.839844 L 110.011719 111.558594 C 110.890625 109.996094 109.863281 108.8125 108.429688 108.8125 Z M 140.972656 104.992188 L 154.433594 104.992188 L 142.273438 125.996094 L 128.808594 125.996094 Z M 140.972656 104.992188 "/>
<path style=" stroke:none;fill-rule:nonzero;fill:rgb(100%,100%,100%);fill-opacity:1;" d="M 126.835938 108.890625 L 128.988281 104.992188 L 163.984375 104.992188 L 161.828125 108.890625 L 152.175781 108.894531 L 142.273438 125.996094 L 128.808594 125.996094 L 138.738281 108.851562 Z M 165.15625 108.804688 L 167.027344 105 L 198.894531 104.992188 L 196.738281 108.890625 L 187.085938 108.894531 L 177.183594 125.996094 L 163.722656 125.996094 L 173.648438 108.851562 Z M 51.730469 108.648438 C 53.121094 105.949219 55.636719 105.011719 58.578125 104.988281 L 84.367188 104.988281 L 82.019531 108.789062 L 66.824219 108.800781 C 65.753906 108.832031 64.648438 109.550781 64.382812 110.113281 L 58.992188 119.246094 C 58.179688 120.679688 58.777344 122.429688 61.117188 122.445312 L 74.464844 122.484375 L 72.503906 125.984375 L 47.175781 125.957031 C 44.726562 125.996094 43.519531 123.308594 44.796875 121.175781 Z M 51.730469 108.648438 "/>
<path style=" stroke:none;fill-rule:nonzero;fill:rgb(56.078434%,63.921571%,67.843139%);fill-opacity:1;" d="M 126.472656 0.554688 L 116.566406 17.554688 L 99.308594 17.804688 C 96.410156 18 94.890625 18.328125 93.40625 20.78125 L 87.039062 32.570312 C 85.628906 35.304688 85.949219 37.890625 86.953125 39.972656 L 91.429688 48.683594 C 93.65625 51.871094 93.859375 56.949219 92.519531 59.808594 L 82.972656 75.386719 L 66.101562 46.351562 C 64.589844 42.6875 64.863281 34.742188 68.0625 29.429688 L 82 5.203125 C 84.269531 1.414062 86.828125 0 92.835938 0.117188 Z M 126.472656 0.554688 "/>
<path style=" stroke:none;fill-rule:nonzero;fill:rgb(100%,100%,100%);fill-opacity:1;" d="M 73.101562 92.699219 L 82.972656 75.386719 L 100.363281 75.386719 C 103.273438 75.1875 104.796875 74.859375 106.285156 72.398438 L 112.671875 60.566406 C 114.085938 57.824219 113.769531 55.226562 112.757812 53.140625 L 108.269531 44.398438 C 106.035156 41.195312 105.828125 36.101562 107.175781 33.234375 L 116.566406 17.554688 L 133.6875 46.738281 C 135.203125 50.414062 134.929688 58.386719 131.71875 63.71875 L 117.738281 88.027344 C 115.457031 91.828125 112.890625 93.25 106.855469 93.132812 Z M 73.101562 92.699219 "/>
</g>
</svg>
